{"asset":{"version":"2.0","generator":"VECTARY"},"nodes":[{"translation":[0.022661964744329452,0.00011448554869275495,0.0034707666561007502],"scale":[0.001,0.001,0.001],"rotation":[-0.7071067811865475,0,0,0.7071067811865476],"name":"Cinnamon ice cream cornet","children":[1,2,3,4,5,6,7]},{"translation":[-22.19197741277054,3.47076665610075,-0.11448554869275539],"scale":[1000,999.9999999999999,999.9999999999999],"rotation":[0,0,0,1],"name":"Cinamon","mesh":0},{"translation":[1.3386035846965,-30.754191763699055,120.5192310345592],"scale":[1000,999.9999999999999,999.9999999999999],"rotation":[0,0,0,1],"name":"Heart","mesh":1},{"translation":[-29.72964158780411,2.9448090866208076,156.04274101380724],"scale":[1000,999.9999999999999,999.9999999999999],"rotation":[0,0,0,1],"name":"Sprinkles3","mesh":2},{"translation":[-29.72964158780411,2.9448090866208076,156.04274101380724],"scale":[1000,999.9999999999999,999.9999999999999],"rotation":[0,0,0,1],"name":"Sprinkles1","mesh":3},{"translation":[-21.853717104862483,3.47076665610075,-0.11448554869275539],"scale":[1000,999.9999999999999,999.9999999999999],"rotation":[0,0,0,1],"name":"Cone","mesh":4},{"translation":[-22.19197741277054,3.47076665610075,-0.11448554869275539],"scale":[1000,999.9999999999999,999.9999999999999],"rotation":[0,0,0,1],"name":"Ice cream","mesh":5},{"translation":[-29.72964158780411,2.9448090866208076,156.04274101380724],"scale":[1000,999.9999999999999,999.9999999999999],"rotation":[0,0,0,1],"name":"Sprinkles2","mesh":6}],"materials":[{"pbrMetallicRoughness":{"baseColorFactor":[1,1,1,1],"baseColorTexture":{"index":0,"extensions":{"KHR_texture_transform":{"offset":[0,0],"scale":[1,1],"rotation":0}},"texCoord":0},"metallicFactor":0,"roughnessFactor":0.78},"name":"Cinamom","emissiveFactor":[0,0,0],"extensions":{},"alphaMode":"OPAQUE","doubleSided":false},{"pbrMetallicRoughness":{"baseColorFactor":[1,1,1,1],"baseColorTexture":{"index":1,"extensions":{"KHR_texture_transform":{"offset":[0,0],"scale":[1,1],"rotation":0}},"texCoord":0},"metallicFactor":0,"roughnessFactor":0.78},"name":"Heart 1","emissiveFactor":[0,0,0],"extensions":{},"alphaMode":"OPAQUE","doubleSided":false},{"pbrMetallicRoughness":{"baseColorFactor":[0.5479935021969718,0.23489525921588023,0.012663720031582098,1],"metallicFactor":0,"roughnessFactor":0.2},"name":"Sprinkles3","emissiveFactor":[0,0,0],"extensions":{},"alphaMode":"OPAQUE","doubleSided":false},{"pbrMetallicRoughness":{"baseColorFactor":[1,1,1,1],"metallicFactor":0,"roughnessFactor":0.2},"name":"Sprinkles1","emissiveFactor":[0,0,0],"extensions":{},"alphaMode":"OPAQUE","doubleSided":false},{"pbrMetallicRoughness":{"baseColorFactor":[1,1,1,1],"baseColorTexture":{"index":2,"extensions":{"KHR_texture_transform":{"offset":[0,0],"scale":[1,1],"rotation":0}},"texCoord":0},"metallicFactor":0,"roughnessFactor":0.75},"name":"Cone","normalTexture":{"index":3,"scale":1,"extensions":{"KHR_texture_transform":{"offset":[0,0],"scale":[1,1],"rotation":0}},"texCoord":0},"emissiveFactor":[0,0,0],"extensions":{},"alphaMode":"OPAQUE","doubleSided":false},{"pbrMetallicRoughness":{"baseColorFactor":[1,0.4704402453042184,0.06772458968542432,1],"metallicFactor":0,"roughnessFactor":0.82},"name":"Ice cream","emissiveFactor":[0,0,0],"extensions":{},"alphaMode":"OPAQUE","doubleSided":false},{"pbrMetallicRoughness":{"baseColorFactor":[0.6730490732809419,0.3837746464879752,0.04455262731642138,1],"metallicFactor":0,"roughnessFactor":0.2},"name":"Sprinkles2","emissiveFactor":[0,0,0],"extensions":{},"alphaMode":"OPAQUE","doubleSided":false}],"textures":[{"sampler":0,"source":0},{"sampler":0,"source":1},{"sampler":0,"source":2},{"sampler":0,"source":3}],"images":[{"uri":"Radial_Gradient_Texture.jpg","mimeType":"image/jpeg"},{"uri":"Linear_Gradient_Texture.jpg","mimeType":"image/jpeg"},{"uri":"1001_BaseColor.jpg","mimeType":"image/jpeg"},{"uri":"1001_Normal.jpg","mimeType":"image/jpeg"}],"samplers":[{"wrapS":10497,"wrapT":10497}],"meshes":[{"primitives":[{"mode":4,"attributes":{"POSITION":1,"NORMAL":2,"TEXCOORD_0":3},"material":0,"indices":0}]},{"primitives":[{"mode":4,"attributes":{"POSITION":5,"NORMAL":6,"TEXCOORD_0":7},"material":1,"indices":4}]},{"primitives":[{"mode":4,"attributes":{"POSITION":9,"NORMAL":10,"TEXCOORD_0":11},"material":2,"indices":8}]},{"primitives":[{"mode":4,"attributes":{"POSITION":13,"NORMAL":14,"TEXCOORD_0":15},"material":3,"indices":12}]},{"primitives":[{"mode":4,"attributes":{"POSITION":17,"NORMAL":18,"TEXCOORD_0":19},"material":4,"indices":16}]},{"primitives":[{"mode":4,"attributes":{"POSITION":21,"NORMAL":22,"TEXCOORD_0":23},"material":5,"indices":20}]},{"primitives":[{"mode":4,"attributes":{"POSITION":25,"NORMAL":26,"TEXCOORD_0":27},"material":6,"indices":24}]}],"accessors":[{"bufferView":0,"byteOffset":0,"componentType":5125,"count":5580,"type":"SCALAR"},{"bufferView":1,"byteOffset":0,"componentType":5126,"count":1962,"max":[0.08629349619150162,0.017115801572799683,0.17946553230285645],"min":[0.02452952228486538,-0.017200427129864693,0.10022135078907013],"type":"VEC3"},{"bufferView":2,"byteOffset":0,"componentType":5126,"count":1962,"type":"VEC3"},{"bufferView":3,"byteOffset":0,"componentType":5126,"count":1962,"type":"VEC2"},{"bufferView":4,"byteOffset":0,"componentType":5125,"count":6348,"type":"SCALAR"},{"bufferView":5,"byteOffset":0,"componentType":5126,"count":1197,"max":[0.018428543582558632,0.010400963015854359,0.01999444141983986],"min":[-0.017757952213287354,-0.011546886526048183,-0.01591082289814949],"type":"VEC3"},{"bufferView":6,"byteOffset":0,"componentType":5126,"count":1197,"type":"VEC3"},{"bufferView":7,"byteOffset":0,"componentType":5126,"count":1197,"type":"VEC2"},{"bufferView":8,"byteOffset":0,"componentType":5125,"count":2904,"type":"SCALAR"},{"bufferView":9,"byteOffset":0,"componentType":5126,"count":1474,"max":[0.03962666541337967,0.03492303937673569,-0.0011728319805115461],"min":[-0.03274384140968323,-0.04316067323088646,-0.055407360196113586],"type":"VEC3"},{"bufferView":10,"byteOffset":0,"componentType":5126,"count":1474,"type":"VEC3"},{"bufferView":11,"byteOffset":0,"componentType":5126,"count":1474,"type":"VEC2"},{"bufferView":12,"byteOffset":0,"componentType":5125,"count":3432,"type":"SCALAR"},{"bufferView":13,"byteOffset":0,"componentType":5126,"count":1742,"max":[0.04810100048780441,0.03902669623494148,0.005311166867613792],"min":[-0.029989182949066162,-0.043892618268728256,-0.06537094712257385],"type":"VEC3"},{"bufferView":14,"byteOffset":0,"componentType":5126,"count":1742,"type":"VEC3"},{"bufferView":15,"byteOffset":0,"componentType":5126,"count":1742,"type":"VEC2"},{"bufferView":16,"byteOffset":0,"componentType":5125,"count":20034,"type":"SCALAR"},{"bufferView":17,"byteOffset":0,"componentType":5126,"count":3619,"max":[0.0407726913690567,0.035164229571819305,0.09269706159830093],"min":[-0.03368787840008736,-0.038365378975868225,0.0001144855486927554],"type":"VEC3"},{"bufferView":18,"byteOffset":0,"componentType":5126,"count":3619,"type":"VEC3"},{"bufferView":19,"byteOffset":0,"componentType":5126,"count":3619,"type":"VEC2"},{"bufferView":20,"byteOffset":0,"componentType":5125,"count":25728,"type":"SCALAR"},{"bufferView":21,"byteOffset":0,"componentType":5126,"count":4353,"max":[0.04502609372138977,0.04112695902585983,0.15819504857063293],"min":[-0.03891712799668312,-0.04529384896159172,0.07809260487556458],"type":"VEC3"},{"bufferView":22,"byteOffset":0,"componentType":5126,"count":4353,"type":"VEC3"},{"bufferView":23,"byteOffset":0,"componentType":5126,"count":4353,"type":"VEC2"},{"bufferView":24,"byteOffset":0,"componentType":5125,"count":5280,"type":"SCALAR"},{"bufferView":25,"byteOffset":0,"componentType":5126,"count":2680,"max":[0.052630748599767685,0.039730899035930634,0.006008724682033062],"min":[-0.03343190252780914,-0.04754253476858139,-0.06185656040906906],"type":"VEC3"},{"bufferView":26,"byteOffset":0,"componentType":5126,"count":2680,"type":"VEC3"},{"bufferView":27,"byteOffset":0,"componentType":5126,"count":2680,"type":"VEC2"}],"bufferViews":[{"buffer":0,"byteOffset":0,"byteLength":22320,"target":34963},{"buffer":0,"byteOffset":22320,"byteLength":23544,"target":34962},{"buffer":0,"byteOffset":45864,"byteLength":23544,"target":34962},{"buffer":0,"byteOffset":69408,"byteLength":15696,"target":34962},{"buffer":0,"byteOffset":85104,"byteLength":25392,"target":34963},{"buffer":0,"byteOffset":110496,"byteLength":14364,"target":34962},{"buffer":0,"byteOffset":124860,"byteLength":14364,"target":34962},{"buffer":0,"byteOffset":139224,"byteLength":9576,"target":34962},{"buffer":0,"byteOffset":148800,"byteLength":11616,"target":34963},{"buffer":0,"byteOffset":160416,"byteLength":17688,"target":34962},{"buffer":0,"byteOffset":178104,"byteLength":17688,"target":34962},{"buffer":0,"byteOffset":195792,"byteLength":11792,"target":34962},{"buffer":0,"byteOffset":207584,"byteLength":13728,"target":34963},{"buffer":0,"byteOffset":221312,"byteLength":20904,"target":34962},{"buffer":0,"byteOffset":242216,"byteLength":20904,"target":34962},{"buffer":0,"byteOffset":263120,"byteLength":13936,"target":34962},{"buffer":0,"byteOffset":277056,"byteLength":80136,"target":34963},{"buffer":0,"byteOffset":357192,"byteLength":43428,"target":34962},{"buffer":0,"byteOffset":400620,"byteLength":43428,"target":34962},{"buffer":0,"byteOffset":444048,"byteLength":28952,"target":34962},{"buffer":0,"byteOffset":473000,"byteLength":102912,"target":34963},{"buffer":0,"byteOffset":575912,"byteLength":52236,"target":34962},{"buffer":0,"byteOffset":628148,"byteLength":52236,"target":34962},{"buffer":0,"byteOffset":680384,"byteLength":34824,"target":34962},{"buffer":0,"byteOffset":715208,"byteLength":21120,"target":34963},{"buffer":0,"byteOffset":736328,"byteLength":32160,"target":34962},{"buffer":0,"byteOffset":768488,"byteLength":32160,"target":34962},{"buffer":0,"byteOffset":800648,"byteLength":21440,"target":34962}],"scene":0,"scenes":[{"nodes":[0],"name":"Project Name"}],"extensionsUsed":["KHR_texture_transform"],"buffers":[{"byteLength":822088,"uri":"ProjectName.bin"}]}