{"asset":{"version":"2.0","generator":"VECTARY"},"nodes":[{"translation":[0,0,0],"scale":[0.001,0.001,0.001],"rotation":[-0.7071067811865475,0,0,0.7071067811865476],"name":"Pink topping","mesh":0},{"translation":[0,0,0],"scale":[0.001,0.001,0.001],"rotation":[-0.7071067811865475,0,0,0.7071067811865476],"name":"Blue topping","mesh":1},{"translation":[0,0,0],"scale":[0.001,0.001,0.001],"rotation":[-0.7071067811865475,0,0,0.7071067811865476],"name":"Dark blue topping","mesh":2},{"translation":[0,0,0],"scale":[0.001,0.001,0.001],"rotation":[-0.7071067811865475,0,0,0.7071067811865476],"name":"Stick","mesh":3}],"materials":[{"pbrMetallicRoughness":{"baseColorFactor":[1,1,1,1],"baseColorTexture":{"index":0,"extensions":{"KHR_texture_transform":{"offset":[0,0],"scale":[1,1],"rotation":0}},"texCoord":0},"metallicFactor":0,"roughnessFactor":0.36},"name":"Pink topping","emissiveFactor":[0,0,0],"extensions":{},"alphaMode":"OPAQUE","doubleSided":false},{"pbrMetallicRoughness":{"baseColorFactor":[1,1,1,1],"baseColorTexture":{"index":1,"extensions":{"KHR_texture_transform":{"offset":[0,0],"scale":[1,1],"rotation":0}},"texCoord":0},"metallicFactor":0,"roughnessFactor":0.27},"name":"Blue topping","emissiveFactor":[0,0,0],"extensions":{},"alphaMode":"OPAQUE","doubleSided":false},{"pbrMetallicRoughness":{"baseColorFactor":[1,1,1,1],"baseColorTexture":{"index":2,"extensions":{"KHR_texture_transform":{"offset":[0,0],"scale":[1,1],"rotation":0}},"texCoord":0},"metallicFactor":0,"roughnessFactor":0.34},"name":"Dark blue topping","emissiveFactor":[0,0,0],"extensions":{},"alphaMode":"OPAQUE","doubleSided":false},{"pbrMetallicRoughness":{"baseColorFactor":[0.39929329990267437,0.25084023643640047,0.11657577617857154,1],"metallicFactor":0,"roughnessFactor":1},"name":"Stick","emissiveFactor":[0,0,0],"extensions":{},"alphaMode":"OPAQUE","doubleSided":false}],"textures":[{"sampler":0,"source":0},{"sampler":0,"source":1},{"sampler":0,"source":2}],"images":[{"uri":"Linear_Gradient_Texture.jpg","mimeType":"image/jpeg"},{"uri":"Linear_Gradient_Texture_1.jpg","mimeType":"image/jpeg"},{"uri":"Linear_Gradient_Texture_2.jpg","mimeType":"image/jpeg"}],"samplers":[{"wrapS":10497,"wrapT":10497}],"meshes":[{"primitives":[{"mode":4,"attributes":{"POSITION":1,"NORMAL":2,"TEXCOORD_0":3},"material":0,"indices":0}]},{"primitives":[{"mode":4,"attributes":{"POSITION":5,"NORMAL":6,"TEXCOORD_0":7},"material":1,"indices":4}]},{"primitives":[{"mode":4,"attributes":{"POSITION":9,"NORMAL":10,"TEXCOORD_0":11},"material":2,"indices":8}]},{"primitives":[{"mode":4,"attributes":{"POSITION":13,"NORMAL":14,"TEXCOORD_0":15},"material":3,"indices":12}]}],"accessors":[{"bufferView":0,"byteOffset":0,"componentType":5125,"count":40704,"type":"SCALAR"},{"bufferView":1,"byteOffset":0,"componentType":5126,"count":7052,"max":[42.71427917480469,24.597496032714844,175.61048889160156],"min":[-44.17449188232422,-26.16179656982422,82.22220611572266],"type":"VEC3"},{"bufferView":2,"byteOffset":0,"componentType":5126,"count":7052,"type":"VEC3"},{"bufferView":3,"byteOffset":0,"componentType":5126,"count":7052,"type":"VEC2"},{"bufferView":4,"byteOffset":0,"componentType":5125,"count":16704,"type":"SCALAR"},{"bufferView":5,"byteOffset":0,"componentType":5126,"count":2952,"max":[37.24828338623047,18.692291259765625,78.11348724365234],"min":[-38.3511962890625,-17.898353576660156,42.77466583251953],"type":"VEC3"},{"bufferView":6,"byteOffset":0,"componentType":5126,"count":2952,"type":"VEC3"},{"bufferView":7,"byteOffset":0,"componentType":5126,"count":2952,"type":"VEC2"},{"bufferView":8,"byteOffset":0,"componentType":5125,"count":23040,"type":"SCALAR"},{"bufferView":9,"byteOffset":0,"componentType":5126,"count":4090,"max":[40.35444259643555,21.326370239257812,100.74737548828125],"min":[-42.04389953613281,-22.01553726196289,60.12162780761719],"type":"VEC3"},{"bufferView":10,"byteOffset":0,"componentType":5126,"count":4090,"type":"VEC3"},{"bufferView":11,"byteOffset":0,"componentType":5126,"count":4090,"type":"VEC2"},{"bufferView":12,"byteOffset":0,"componentType":5125,"count":3144,"type":"SCALAR"},{"bufferView":13,"byteOffset":0,"componentType":5126,"count":542,"max":[13.354350090026855,1.1530952453613281,49.627464294433594],"min":[-13.248241424560547,-1.2261284589767456,0.0524669885635376],"type":"VEC3"},{"bufferView":14,"byteOffset":0,"componentType":5126,"count":542,"type":"VEC3"},{"bufferView":15,"byteOffset":0,"componentType":5126,"count":542,"type":"VEC2"}],"bufferViews":[{"buffer":0,"byteOffset":0,"byteLength":162816,"target":34963},{"buffer":0,"byteOffset":162816,"byteLength":84624,"target":34962},{"buffer":0,"byteOffset":247440,"byteLength":84624,"target":34962},{"buffer":0,"byteOffset":332064,"byteLength":56416,"target":34962},{"buffer":0,"byteOffset":388480,"byteLength":66816,"target":34963},{"buffer":0,"byteOffset":455296,"byteLength":35424,"target":34962},{"buffer":0,"byteOffset":490720,"byteLength":35424,"target":34962},{"buffer":0,"byteOffset":526144,"byteLength":23616,"target":34962},{"buffer":0,"byteOffset":549760,"byteLength":92160,"target":34963},{"buffer":0,"byteOffset":641920,"byteLength":49080,"target":34962},{"buffer":0,"byteOffset":691000,"byteLength":49080,"target":34962},{"buffer":0,"byteOffset":740080,"byteLength":32720,"target":34962},{"buffer":0,"byteOffset":772800,"byteLength":12576,"target":34963},{"buffer":0,"byteOffset":785376,"byteLength":6504,"target":34962},{"buffer":0,"byteOffset":791880,"byteLength":6504,"target":34962},{"buffer":0,"byteOffset":798384,"byteLength":4336,"target":34962}],"scene":0,"scenes":[{"nodes":[0,1,2,3],"name":"Project Name"}],"extensionsUsed":["KHR_texture_transform"],"buffers":[{"byteLength":802720,"uri":"ProjectName.bin"}]}