{"asset":{"version":"2.0","generator":"VECTARY"},"nodes":[{"translation":[0.025169257074594498,0.00011448554869275508,0.002081930637359619],"scale":[0.001,0.001,0.001],"rotation":[-0.7071067811865475,0,0,0.7071067811865476],"name":"Cream ice cream cornet","children":[1,2,5,6,7]},{"translation":[-25.15819713863118,2.081930637359619,-0.11448554869275539],"scale":[1000,999.9999999999999,999.9999999999999],"rotation":[0,0,0,1],"name":"Ice cream","mesh":0},{"translation":[-25.15819713863118,2.081930637359619,-0.11448554869275539],"scale":[1000,999.9999999999999,999.9999999999999],"rotation":[0,0,0,1],"name":"Cream","children":[3,4]},{"translation":[0,0,0],"scale":[1,1,1],"rotation":[0,0,0,1],"name":"Cream1","mesh":1},{"translation":[0,0,0],"scale":[1,1,1],"rotation":[0,0,0,1],"name":"Cream2","mesh":2},{"translation":[-25.15819713863118,2.081930637359619,-0.11448554869275539],"scale":[1000,999.9999999999999,999.9999999999999],"rotation":[0,0,0,1],"name":"Ice Cream","mesh":3},{"translation":[-25.15819713863118,2.081930637359619,-0.11448554869275539],"scale":[1000,999.9999999999999,999.9999999999999],"rotation":[0,0,0,1],"name":"Cinamon","mesh":4},{"translation":[-24.819936830723123,2.081930637359619,-0.11448554869275539],"scale":[1000,999.9999999999999,999.9999999999999],"rotation":[0,0,0,1],"name":"Cone","mesh":5}],"materials":[{"pbrMetallicRoughness":{"baseColorFactor":[0.8831797376727453,0.5924380303208466,0.23099812432326744,1],"metallicFactor":0,"roughnessFactor":0.79},"name":"Ice cream","emissiveFactor":[0,0,0],"extensions":{},"alphaMode":"OPAQUE","doubleSided":false},{"pbrMetallicRoughness":{"baseColorFactor":[1,0.8122414898984895,0.6455552724449345,1],"metallicFactor":0,"roughnessFactor":0.76},"name":"Cream","emissiveFactor":[0,0,0],"extensions":{},"alphaMode":"OPAQUE","doubleSided":false},{"pbrMetallicRoughness":{"baseColorFactor":[1,1,1,1],"metallicFactor":0,"roughnessFactor":0.74},"name":"Cream2","emissiveFactor":[0,0,0],"extensions":{},"alphaMode":"OPAQUE","doubleSided":false},{"pbrMetallicRoughness":{"baseColorFactor":[1,0.7518950805830509,0.4761772653974402,1],"metallicFactor":0,"roughnessFactor":0.77},"name":"Ice cream 1","emissiveFactor":[0,0,0],"extensions":{},"alphaMode":"OPAQUE","doubleSided":false},{"pbrMetallicRoughness":{"baseColorFactor":[0.8831797376727453,0.5924380303208466,0.23099812432326744,1],"metallicFactor":0,"roughnessFactor":0.86},"name":"Cinamon","emissiveFactor":[0,0,0],"extensions":{},"alphaMode":"OPAQUE","doubleSided":false},{"pbrMetallicRoughness":{"baseColorFactor":[1,1,1,1],"baseColorTexture":{"index":0,"extensions":{"KHR_texture_transform":{"offset":[0,0],"scale":[1,1],"rotation":0}},"texCoord":0},"metallicFactor":0,"roughnessFactor":0.2},"name":"Cone","normalTexture":{"index":1,"scale":1,"extensions":{"KHR_texture_transform":{"offset":[0,0],"scale":[1,1],"rotation":0}},"texCoord":0},"emissiveFactor":[0,0,0],"extensions":{},"alphaMode":"OPAQUE","doubleSided":false}],"meshes":[{"primitives":[{"mode":4,"attributes":{"POSITION":1,"NORMAL":2,"TEXCOORD_0":3},"material":0,"indices":0}]},{"primitives":[{"mode":4,"attributes":{"POSITION":5,"NORMAL":6,"TEXCOORD_0":7},"material":1,"indices":4}]},{"primitives":[{"mode":4,"attributes":{"POSITION":9,"NORMAL":10,"TEXCOORD_0":11},"material":2,"indices":8}]},{"primitives":[{"mode":4,"attributes":{"POSITION":13,"NORMAL":14,"TEXCOORD_0":15},"material":3,"indices":12}]},{"primitives":[{"mode":4,"attributes":{"POSITION":17,"NORMAL":18,"TEXCOORD_0":19},"material":4,"indices":16}]},{"primitives":[{"mode":4,"attributes":{"POSITION":21,"NORMAL":22,"TEXCOORD_0":23},"material":5,"indices":20}]}],"accessors":[{"bufferView":0,"byteOffset":0,"componentType":5125,"count":13056,"type":"SCALAR"},{"bufferView":1,"byteOffset":0,"componentType":5126,"count":2440,"max":[0.04536895453929901,0.04114507883787155,0.1094968318939209],"min":[-0.038932278752326965,-0.04530894011259079,0.07809260487556458],"type":"VEC3"},{"bufferView":2,"byteOffset":0,"componentType":5126,"count":2440,"type":"VEC3"},{"bufferView":3,"byteOffset":0,"componentType":5126,"count":2440,"type":"VEC2"},{"bufferView":4,"byteOffset":0,"componentType":5125,"count":7200,"type":"SCALAR"},{"bufferView":5,"byteOffset":0,"componentType":5126,"count":1545,"max":[0.0575660839676857,0.0122780567035079,0.16143779456615448],"min":[0.010098354890942574,-0.043066952377557755,0.10374286770820618],"type":"VEC3"},{"bufferView":6,"byteOffset":0,"componentType":5126,"count":1545,"type":"VEC3"},{"bufferView":7,"byteOffset":0,"componentType":5126,"count":1545,"type":"VEC2"},{"bufferView":8,"byteOffset":0,"componentType":5125,"count":5760,"type":"SCALAR"},{"bufferView":9,"byteOffset":0,"componentType":5126,"count":1314,"max":[0.05721568316221237,0.011631203815340996,0.16127657890319824],"min":[0.011044595390558243,-0.0425545759499073,0.10539649426937103],"type":"VEC3"},{"bufferView":10,"byteOffset":0,"componentType":5126,"count":1314,"type":"VEC3"},{"bufferView":11,"byteOffset":0,"componentType":5126,"count":1314,"type":"VEC2"},{"bufferView":12,"byteOffset":0,"componentType":5125,"count":29784,"type":"SCALAR"},{"bufferView":13,"byteOffset":0,"componentType":5126,"count":5599,"max":[0.04538700729608536,0.03813781216740608,0.15829899907112122],"min":[-0.039876408874988556,-0.044546131044626236,0.09720735251903534],"type":"VEC3"},{"bufferView":14,"byteOffset":0,"componentType":5126,"count":5599,"type":"VEC3"},{"bufferView":15,"byteOffset":0,"componentType":5126,"count":5599,"type":"VEC2"},{"bufferView":16,"byteOffset":0,"componentType":5125,"count":3720,"type":"SCALAR"},{"bufferView":17,"byteOffset":0,"componentType":5126,"count":1742,"max":[0.09021492302417755,0.011253039352595806,0.1746949851512909],"min":[0.026485690847039223,-0.01610635034739971,0.09830363839864731],"type":"VEC3"},{"bufferView":18,"byteOffset":0,"componentType":5126,"count":1742,"type":"VEC3"},{"bufferView":19,"byteOffset":0,"componentType":5126,"count":1742,"type":"VEC2"},{"bufferView":20,"byteOffset":0,"componentType":5125,"count":20034,"type":"SCALAR"},{"bufferView":21,"byteOffset":0,"componentType":5126,"count":3619,"max":[0.0407726913690567,0.035164229571819305,0.09269706159830093],"min":[-0.03368787840008736,-0.038365378975868225,0.0001144855486927554],"type":"VEC3"},{"bufferView":22,"byteOffset":0,"componentType":5126,"count":3619,"type":"VEC3"},{"bufferView":23,"byteOffset":0,"componentType":5126,"count":3619,"type":"VEC2"}],"bufferViews":[{"buffer":0,"byteOffset":0,"byteLength":52224,"target":34963},{"buffer":0,"byteOffset":52224,"byteLength":29280,"target":34962},{"buffer":0,"byteOffset":81504,"byteLength":29280,"target":34962},{"buffer":0,"byteOffset":110784,"byteLength":19520,"target":34962},{"buffer":0,"byteOffset":130304,"byteLength":28800,"target":34963},{"buffer":0,"byteOffset":159104,"byteLength":18540,"target":34962},{"buffer":0,"byteOffset":177644,"byteLength":18540,"target":34962},{"buffer":0,"byteOffset":196184,"byteLength":12360,"target":34962},{"buffer":0,"byteOffset":208544,"byteLength":23040,"target":34963},{"buffer":0,"byteOffset":231584,"byteLength":15768,"target":34962},{"buffer":0,"byteOffset":247352,"byteLength":15768,"target":34962},{"buffer":0,"byteOffset":263120,"byteLength":10512,"target":34962},{"buffer":0,"byteOffset":273632,"byteLength":119136,"target":34963},{"buffer":0,"byteOffset":392768,"byteLength":67188,"target":34962},{"buffer":0,"byteOffset":459956,"byteLength":67188,"target":34962},{"buffer":0,"byteOffset":527144,"byteLength":44792,"target":34962},{"buffer":0,"byteOffset":571936,"byteLength":14880,"target":34963},{"buffer":0,"byteOffset":586816,"byteLength":20904,"target":34962},{"buffer":0,"byteOffset":607720,"byteLength":20904,"target":34962},{"buffer":0,"byteOffset":628624,"byteLength":13936,"target":34962},{"buffer":0,"byteOffset":642560,"byteLength":80136,"target":34963},{"buffer":0,"byteOffset":722696,"byteLength":43428,"target":34962},{"buffer":0,"byteOffset":766124,"byteLength":43428,"target":34962},{"buffer":0,"byteOffset":809552,"byteLength":28952,"target":34962}],"textures":[{"sampler":0,"source":0},{"sampler":0,"source":1}],"images":[{"uri":"Cornetto_BaseColor.jpg","mimeType":"image/jpeg"},{"uri":"Cornetto_Normal.jpg","mimeType":"image/jpeg"}],"samplers":[{"wrapS":10497,"wrapT":10497}],"scene":0,"scenes":[{"nodes":[0],"name":"Project Name"}],"extensionsUsed":["KHR_texture_transform"],"buffers":[{"byteLength":838504,"uri":"ProjectName.bin"}]}