{"asset":{"version":"2.0","generator":"VECTARY"},"nodes":[{"translation":[0,0,0],"scale":[1,0.9999999999999999,0.9999999999999999],"rotation":[-0.7071067811865475,0,0,0.7071067811865476],"name":"Chocolate-chip ice cream cornet","mesh":0}],"materials":[{"pbrMetallicRoughness":{"baseColorFactor":[1,1,1,1],"baseColorTexture":{"index":0,"extensions":{"KHR_texture_transform":{"offset":[0,0],"scale":[1,1],"rotation":0}},"texCoord":0},"metallicRoughnessTexture":{"index":2,"extensions":{"KHR_texture_transform":{"offset":[0,0],"scale":[1,1],"rotation":0}},"texCoord":0},"metallicFactor":0,"roughnessFactor":1},"name":"Chocolate-chip ice cream cornet","normalTexture":{"index":1,"scale":1,"extensions":{"KHR_texture_transform":{"offset":[0,0],"scale":[1,1],"rotation":0}},"texCoord":0},"emissiveFactor":[0,0,0],"extensions":{},"alphaMode":"OPAQUE","doubleSided":false}],"textures":[{"sampler":0,"source":0},{"sampler":0,"source":1},{"sampler":0,"source":2}],"images":[{"uri":"base_color_texture.jpg","mimeType":"image/jpeg"},{"uri":"normalmap_texture.jpg","mimeType":"image/jpeg"},{"uri":"metallicTexture&pet_ICE-cream_cornet_Chocolate_Chocolate-Chip_UV_Material.jpg","mimeType":"image/jpeg"}],"samplers":[{"wrapS":10497,"wrapT":10497}],"meshes":[{"primitives":[{"mode":4,"attributes":{"POSITION":1,"NORMAL":2,"TEXCOORD_0":3},"material":0,"indices":0}]}],"accessors":[{"bufferView":0,"byteOffset":0,"componentType":5125,"count":140640,"type":"SCALAR"},{"bufferView":1,"byteOffset":0,"componentType":5126,"count":27446,"max":[0.050522927194833755,0.036859337240457535,0.1496543288230896],"min":[-0.03402473405003548,-0.026329748332500458,0],"type":"VEC3"},{"bufferView":2,"byteOffset":0,"componentType":5126,"count":27446,"type":"VEC3"},{"bufferView":3,"byteOffset":0,"componentType":5126,"count":27446,"type":"VEC2"}],"bufferViews":[{"buffer":0,"byteOffset":0,"byteLength":562560,"target":34963},{"buffer":0,"byteOffset":562560,"byteLength":329352,"target":34962},{"buffer":0,"byteOffset":891912,"byteLength":329352,"target":34962},{"buffer":0,"byteOffset":1221264,"byteLength":219568,"target":34962}],"scene":0,"scenes":[{"nodes":[0],"name":"Project Name"}],"extensionsUsed":["KHR_texture_transform"],"buffers":[{"byteLength":1440832,"uri":"ProjectName.bin"}]}