{"asset":{"version":"2.0","generator":"VECTARY"},"nodes":[{"translation":[0.009162406800594554,0.000036577255072593905,0.000502557107014777],"scale":[0.001,0.001,0.001],"rotation":[-0.7071067811865475,0,0,0.7071067811865476],"name":"Blueberry ice cream cornet","children":[1,10]},{"translation":[-9.162406800594553,0.502557107014777,-0.03657725507259402],"scale":[1,1,1],"rotation":[0,0,0,1],"name":"Blueberry ice cream cornet","children":[2,3,4,5,8,9]},{"translation":[-0.05272269248962402,0.5145647020967203,2.6185989379882812],"scale":[1.9589299999999998,1.9589299999999998,1.9589299999999998],"rotation":[0,0,0,0.9999999999999998],"name":"Cornet","mesh":0},{"translation":[-0.9923398494720459,2.298426816049357,125.55903434753418],"scale":[10,10,10],"rotation":[0,0,0,1],"name":"Pink ice cream","mesh":1},{"translation":[-0.9923398494720459,2.298426816049357,125.55903434753418],"scale":[2.71426,2.71426,2.71426],"rotation":[0,0,0,1],"name":"Purple ice cream","mesh":2},{"translation":[18.18557381629944,4.067239949289103,128.77276420593262],"scale":[1.95893,1.95893,1.95893],"rotation":[-0.013116539380146126,0.30041959107646193,0.041600491177202104,0.9528092279286322],"name":"Sticks and leafs","children":[6,7]},{"translation":[0,0,0],"scale":[1,1,1],"rotation":[0,0,0,1],"name":"Cornet sticks","mesh":3},{"translation":[0,0,0],"scale":[1,1,1],"rotation":[0,0,0,1],"name":"Cornet sticks stripes","mesh":4},{"translation":[8.661419153213501,-32.59564380925582,110.27255058288574],"scale":[4.2843599999999995,5.1229700000000005,4.284359999999999],"rotation":[0.7235563484341518,-0.5453234792893952,0.3923026117200622,0.1587046767236651],"name":"Leaf 1","mesh":5},{"translation":[7.43899941444397,-35.61623554509566,110.27255058288574],"scale":[5.445000000000001,6.510780000000002,5.445000000000002],"rotation":[0.7416778514020242,-0.3477435682570098,0.3342206104598273,0.4661383475100708],"name":"Leaf 2","mesh":6},{"translation":[-9.808339567512729,65.85935168674649,-0.03657725507259402],"scale":[1,1,1],"rotation":[0,0,0,1],"name":"Blueberries","children":[11,12]},{"translation":[29.45676326751709,-88.32578659057617,104.0202522277832],"scale":[1.6807800000000002,1.6807800000000002,1.68078],"rotation":[-0.10470004141340061,0.16418831573449735,0.4802376201622435,0.8552496281701651],"name":"Blueberries","mesh":7},{"translation":[29.45676326751709,-88.32578659057617,104.0202522277832],"scale":[1.68078,1.6807800000000004,1.6807800000000002],"rotation":[-0.10470002653436776,0.1641883216683807,0.4802375299144315,0.8552496795282115],"name":"Top of the blueberris","mesh":8}],"materials":[{"pbrMetallicRoughness":{"baseColorFactor":[1,1,1,1],"baseColorTexture":{"index":0,"extensions":{"KHR_texture_transform":{"offset":[0,0],"scale":[1,1],"rotation":0}},"texCoord":0},"metallicFactor":0,"roughnessFactor":0.55},"name":"Cornet","normalTexture":{"index":1,"scale":1,"extensions":{"KHR_texture_transform":{"offset":[0,0],"scale":[1,1],"rotation":0}},"texCoord":0},"emissiveFactor":[0,0,0],"extensions":{},"alphaMode":"OPAQUE","doubleSided":false},{"pbrMetallicRoughness":{"baseColorFactor":[1,1,1,1],"metallicRoughnessTexture":{"index":3,"extensions":{"KHR_texture_transform":{"offset":[0,0],"scale":[5,5],"rotation":0}},"texCoord":0},"metallicFactor":0,"roughnessFactor":0.11},"name":"Pink ice cream","normalTexture":{"index":2,"scale":1,"extensions":{"KHR_texture_transform":{"offset":[0,0],"scale":[5,5],"rotation":0}},"texCoord":0},"emissiveFactor":[0,0,0],"extensions":{},"alphaMode":"OPAQUE","doubleSided":false},{"pbrMetallicRoughness":{"baseColorFactor":[1,1,1,1],"metallicRoughnessTexture":{"index":5,"extensions":{"KHR_texture_transform":{"offset":[0,0],"scale":[5,5],"rotation":0}},"texCoord":0},"metallicFactor":0,"roughnessFactor":0.11},"name":"Purple ice cream","normalTexture":{"index":4,"scale":1,"extensions":{"KHR_texture_transform":{"offset":[0,0],"scale":[5,5],"rotation":0}},"texCoord":0},"emissiveFactor":[0,0,0],"extensions":{},"alphaMode":"OPAQUE","doubleSided":false},{"pbrMetallicRoughness":{"baseColorFactor":[0.8591735696585323,0.6730490732809419,0.5295232224172772,1],"metallicFactor":0,"roughnessFactor":0.81},"name":"Cornet sticks","emissiveFactor":[0,0,0],"extensions":{},"alphaMode":"OPAQUE","doubleSided":false},{"pbrMetallicRoughness":{"baseColorFactor":[0.5542270877660852,0.39929329990267437,0.28445206156002445,1],"metallicFactor":0,"roughnessFactor":0.2},"name":"Cornet sticks stripes","emissiveFactor":[0,0,0],"extensions":{},"alphaMode":"OPAQUE","doubleSided":false},{"pbrMetallicRoughness":{"baseColorFactor":[1,1,1,1],"metallicRoughnessTexture":{"index":3,"extensions":{"KHR_texture_transform":{"offset":[0,0],"scale":[1,1],"rotation":0}},"texCoord":0},"metallicFactor":0,"roughnessFactor":0.37},"name":"Leaf 1","normalTexture":{"index":2,"scale":1,"extensions":{"KHR_texture_transform":{"offset":[0,0],"scale":[1,1],"rotation":0}},"texCoord":0},"emissiveFactor":[0,0,0],"extensions":{},"alphaMode":"OPAQUE","doubleSided":false},{"pbrMetallicRoughness":{"baseColorFactor":[0.1332085131842997,0.025371276904734584,0.744530171266715,1],"metallicFactor":0,"roughnessFactor":0.2},"name":"Blueberries","emissiveFactor":[0,0,0],"extensions":{},"alphaMode":"OPAQUE","doubleSided":false},{"pbrMetallicRoughness":{"baseColorFactor":[0.3203815487918104,0.24680041960155044,1,1],"metallicFactor":0,"roughnessFactor":0.2},"name":"Top of the blueberris","emissiveFactor":[0,0,0],"extensions":{},"alphaMode":"OPAQUE","doubleSided":false}],"textures":[{"sampler":0,"source":0},{"sampler":0,"source":1},{"sampler":0,"source":2},{"sampler":0,"source":3},{"sampler":0,"source":4},{"sampler":0,"source":5}],"images":[{"uri":"ice_cream_Material__26_BaseColor.jpg","mimeType":"image/jpeg"},{"uri":"New_Graph_normal.jpg","mimeType":"image/jpeg"},{"uri":"Plastic_003_NormalMap.jpg","mimeType":"image/jpeg"},{"uri":"metallicTexture&Plastic_003_Roughness.jpg","mimeType":"image/jpeg"},{"uri":"Plastic_003_NormalMap_1.jpg","mimeType":"image/jpeg"},{"uri":"metallicTexture&Plastic_003_Roughness_1.jpg","mimeType":"image/jpeg"}],"samplers":[{"wrapS":10497,"wrapT":10497}],"meshes":[{"primitives":[{"mode":4,"attributes":{"POSITION":1,"NORMAL":2,"TEXCOORD_0":3},"material":0,"indices":0}]},{"primitives":[{"mode":4,"attributes":{"POSITION":5,"NORMAL":6,"TEXCOORD_0":7},"material":1,"indices":4}]},{"primitives":[{"mode":4,"attributes":{"POSITION":9,"NORMAL":10,"TEXCOORD_0":11},"material":2,"indices":8}]},{"primitives":[{"mode":4,"attributes":{"POSITION":13,"NORMAL":14,"TEXCOORD_0":15},"material":3,"indices":12}]},{"primitives":[{"mode":4,"attributes":{"POSITION":17,"NORMAL":18,"TEXCOORD_0":19},"material":4,"indices":16}]},{"primitives":[{"mode":4,"attributes":{"POSITION":21,"NORMAL":22,"TEXCOORD_0":23},"material":5,"indices":20}]},{"primitives":[{"mode":4,"attributes":{"POSITION":25,"NORMAL":26,"TEXCOORD_0":27},"material":5,"indices":24}]},{"primitives":[{"mode":4,"attributes":{"POSITION":29,"NORMAL":30,"TEXCOORD_0":31},"material":6,"indices":28}]},{"primitives":[{"mode":4,"attributes":{"POSITION":33,"NORMAL":34,"TEXCOORD_0":35},"material":7,"indices":32}]}],"accessors":[{"bufferView":0,"byteOffset":0,"componentType":5125,"count":5859,"type":"SCALAR"},{"bufferView":1,"byteOffset":0,"componentType":5126,"count":1046,"max":[18.5853328704834,18.529008865356445,41.4790153503418],"min":[-18.52468490600586,-18.59720230102539,-1.318077564239502],"type":"VEC3"},{"bufferView":2,"byteOffset":0,"componentType":5126,"count":1046,"type":"VEC3"},{"bufferView":3,"byteOffset":0,"componentType":5126,"count":1046,"type":"VEC2"},{"bufferView":4,"byteOffset":0,"componentType":5125,"count":12912,"type":"SCALAR"},{"bufferView":5,"byteOffset":0,"componentType":5126,"count":3098,"max":[4.288908958435059,4.3592529296875,3.2614169120788574],"min":[-4.330504894256592,-4.318450450897217,-3.756558895111084],"type":"VEC3"},{"bufferView":6,"byteOffset":0,"componentType":5126,"count":3098,"type":"VEC3"},{"bufferView":7,"byteOffset":0,"componentType":5126,"count":3098,"type":"VEC2"},{"bufferView":8,"byteOffset":0,"componentType":5125,"count":5970,"type":"SCALAR"},{"bufferView":9,"byteOffset":0,"componentType":5126,"count":1328,"max":[14.761711120605469,16.21162223815918,-8.515413284301758],"min":[-15.550285339355469,-15.815032005310059,-20.31346893310547],"type":"VEC3"},{"bufferView":10,"byteOffset":0,"componentType":5126,"count":1328,"type":"VEC3"},{"bufferView":11,"byteOffset":0,"componentType":5126,"count":1328,"type":"VEC2"},{"bufferView":12,"byteOffset":0,"componentType":5125,"count":2376,"type":"SCALAR"},{"bufferView":13,"byteOffset":0,"componentType":5126,"count":792,"max":[2.6280713081359863,2.6280715465545654,36.13815689086914],"min":[-14.382231712341309,-11.710386276245117,-0.5380220413208008],"type":"VEC3"},{"bufferView":14,"byteOffset":0,"componentType":5126,"count":792,"type":"VEC3"},{"bufferView":15,"byteOffset":0,"componentType":5126,"count":792,"type":"VEC2"},{"bufferView":16,"byteOffset":0,"componentType":5125,"count":480,"type":"SCALAR"},{"bufferView":17,"byteOffset":0,"componentType":5126,"count":192,"max":[2.6280713081359863,2.6280715465545654,35.621212005615234],"min":[-13.316287994384766,-9.674397468566895,7.243474006652832],"type":"VEC3"},{"bufferView":18,"byteOffset":0,"componentType":5126,"count":192,"type":"VEC3"},{"bufferView":19,"byteOffset":0,"componentType":5126,"count":192,"type":"VEC2"},{"bufferView":20,"byteOffset":0,"componentType":5125,"count":2904,"type":"SCALAR"},{"bufferView":21,"byteOffset":0,"componentType":5126,"count":761,"max":[6.0536956787109375,1.5345711708068848,0.1703646183013916],"min":[0.025648117065429688,-1.5293254852294922,-3.9042186737060547],"type":"VEC3"},{"bufferView":22,"byteOffset":0,"componentType":5126,"count":761,"type":"VEC3"},{"bufferView":23,"byteOffset":0,"componentType":5126,"count":761,"type":"VEC2"},{"bufferView":24,"byteOffset":0,"componentType":5125,"count":2904,"type":"SCALAR"},{"bufferView":25,"byteOffset":0,"componentType":5126,"count":761,"max":[6.0536956787109375,1.5345711708068848,0.1703646183013916],"min":[0.025648117065429688,-1.5293254852294922,-3.9042186737060547],"type":"VEC3"},{"bufferView":26,"byteOffset":0,"componentType":5126,"count":761,"type":"VEC3"},{"bufferView":27,"byteOffset":0,"componentType":5126,"count":761,"type":"VEC2"},{"bufferView":28,"byteOffset":0,"componentType":5125,"count":6912,"type":"SCALAR"},{"bufferView":29,"byteOffset":0,"componentType":5126,"count":1468,"max":[5,14.677635192871094,5],"min":[-21.675735473632812,-5,-6.937527179718018],"type":"VEC3"},{"bufferView":30,"byteOffset":0,"componentType":5126,"count":1468,"type":"VEC3"},{"bufferView":31,"byteOffset":0,"componentType":5126,"count":1468,"type":"VEC2"},{"bufferView":32,"byteOffset":0,"componentType":5125,"count":9288,"type":"SCALAR"},{"bufferView":33,"byteOffset":0,"componentType":5126,"count":2459,"max":[3.1936867237091064,10.638530731201172,4.093549728393555],"min":[-22.219680786132812,-5.5520195960998535,-5.048929214477539],"type":"VEC3"},{"bufferView":34,"byteOffset":0,"componentType":5126,"count":2459,"type":"VEC3"},{"bufferView":35,"byteOffset":0,"componentType":5126,"count":2459,"type":"VEC2"}],"bufferViews":[{"buffer":0,"byteOffset":0,"byteLength":23436,"target":34963},{"buffer":0,"byteOffset":23436,"byteLength":12552,"target":34962},{"buffer":0,"byteOffset":35988,"byteLength":12552,"target":34962},{"buffer":0,"byteOffset":48540,"byteLength":8368,"target":34962},{"buffer":0,"byteOffset":56908,"byteLength":51648,"target":34963},{"buffer":0,"byteOffset":108556,"byteLength":37176,"target":34962},{"buffer":0,"byteOffset":145732,"byteLength":37176,"target":34962},{"buffer":0,"byteOffset":182908,"byteLength":24784,"target":34962},{"buffer":0,"byteOffset":207692,"byteLength":23880,"target":34963},{"buffer":0,"byteOffset":231572,"byteLength":15936,"target":34962},{"buffer":0,"byteOffset":247508,"byteLength":15936,"target":34962},{"buffer":0,"byteOffset":263444,"byteLength":10624,"target":34962},{"buffer":0,"byteOffset":274068,"byteLength":9504,"target":34963},{"buffer":0,"byteOffset":283572,"byteLength":9504,"target":34962},{"buffer":0,"byteOffset":293076,"byteLength":9504,"target":34962},{"buffer":0,"byteOffset":302580,"byteLength":6336,"target":34962},{"buffer":0,"byteOffset":308916,"byteLength":1920,"target":34963},{"buffer":0,"byteOffset":310836,"byteLength":2304,"target":34962},{"buffer":0,"byteOffset":313140,"byteLength":2304,"target":34962},{"buffer":0,"byteOffset":315444,"byteLength":1536,"target":34962},{"buffer":0,"byteOffset":316980,"byteLength":11616,"target":34963},{"buffer":0,"byteOffset":328596,"byteLength":9132,"target":34962},{"buffer":0,"byteOffset":337728,"byteLength":9132,"target":34962},{"buffer":0,"byteOffset":346860,"byteLength":6088,"target":34962},{"buffer":0,"byteOffset":352948,"byteLength":11616,"target":34963},{"buffer":0,"byteOffset":364564,"byteLength":9132,"target":34962},{"buffer":0,"byteOffset":373696,"byteLength":9132,"target":34962},{"buffer":0,"byteOffset":382828,"byteLength":6088,"target":34962},{"buffer":0,"byteOffset":388916,"byteLength":27648,"target":34963},{"buffer":0,"byteOffset":416564,"byteLength":17616,"target":34962},{"buffer":0,"byteOffset":434180,"byteLength":17616,"target":34962},{"buffer":0,"byteOffset":451796,"byteLength":11744,"target":34962},{"buffer":0,"byteOffset":463540,"byteLength":37152,"target":34963},{"buffer":0,"byteOffset":500692,"byteLength":29508,"target":34962},{"buffer":0,"byteOffset":530200,"byteLength":29508,"target":34962},{"buffer":0,"byteOffset":559708,"byteLength":19672,"target":34962}],"scene":0,"scenes":[{"nodes":[0],"name":"Project Name"}],"extensionsUsed":["KHR_texture_transform"],"buffers":[{"byteLength":579380,"uri":"ProjectName.bin"}]}