{"asset":{"version":"2.0","generator":"VECTARY"},"nodes":[{"translation":[-0.0008029035029163509,0,0],"scale":[0.001,0.001,0.001],"rotation":[-0.7071067811865475,0,0,0.7071067811865476],"name":"Chips","mesh":0},{"translation":[-0.0008029035029163509,0,0],"scale":[0.001,0.001,0.001],"rotation":[-0.7071067811865475,0,0,0.7071067811865476],"name":"Chocolate","mesh":1},{"translation":[-0.0008029035029163509,0,0],"scale":[0.001,0.001,0.001],"rotation":[-0.7071067811865475,0,0,0.7071067811865476],"name":"Stick","mesh":2}],"materials":[{"pbrMetallicRoughness":{"baseColorFactor":[1,1,1,1],"baseColorTexture":{"index":0,"extensions":{"KHR_texture_transform":{"offset":[0,0],"scale":[1,1],"rotation":0}},"texCoord":0},"metallicFactor":0,"roughnessFactor":0.34},"name":"Chips","emissiveFactor":[0,0,0],"extensions":{},"alphaMode":"OPAQUE","doubleSided":false},{"pbrMetallicRoughness":{"baseColorFactor":[1.0000002622604558,1.0000002622604558,1.0000002622604558,1],"metallicFactor":0,"roughnessFactor":0.5},"name":"Chocolate","emissiveFactor":[0,0,0],"extensions":{},"alphaMode":"OPAQUE","doubleSided":false},{"pbrMetallicRoughness":{"baseColorFactor":[0.39929329990267437,0.25084023643640047,0.11657577617857154,1],"metallicFactor":0,"roughnessFactor":1},"name":"Stick","emissiveFactor":[0,0,0],"extensions":{},"alphaMode":"OPAQUE","doubleSided":false}],"textures":[{"sampler":0,"source":0}],"images":[{"uri":"Linear_Gradient_Texture.jpg","mimeType":"image/jpeg"}],"samplers":[{"wrapS":10497,"wrapT":10497}],"meshes":[{"primitives":[{"mode":4,"attributes":{"POSITION":1,"NORMAL":2,"TEXCOORD_0":3},"material":0,"indices":0}]},{"primitives":[{"mode":4,"attributes":{"POSITION":5,"NORMAL":6,"TEXCOORD_0":7},"material":1,"indices":4}]},{"primitives":[{"mode":4,"attributes":{"POSITION":9,"NORMAL":10,"TEXCOORD_0":11},"material":2,"indices":8}]}],"accessors":[{"bufferView":0,"byteOffset":0,"componentType":5125,"count":58320,"type":"SCALAR"},{"bufferView":1,"byteOffset":0,"componentType":5126,"count":10186,"max":[43.93415451049805,28.046642303466797,174.48068237304688],"min":[-45.66539001464844,-25.559566497802734,41.16773223876953],"type":"VEC3"},{"bufferView":2,"byteOffset":0,"componentType":5126,"count":10186,"type":"VEC3"},{"bufferView":3,"byteOffset":0,"componentType":5126,"count":10186,"type":"VEC2"},{"bufferView":4,"byteOffset":0,"componentType":5125,"count":30528,"type":"SCALAR"},{"bufferView":5,"byteOffset":0,"componentType":5126,"count":5364,"max":[41.28683090209961,25.56836700439453,128.73536682128906],"min":[-44.70281219482422,-23.285037994384766,48.774871826171875],"type":"VEC3"},{"bufferView":6,"byteOffset":0,"componentType":5126,"count":5364,"type":"VEC3"},{"bufferView":7,"byteOffset":0,"componentType":5126,"count":5364,"type":"VEC2"},{"bufferView":8,"byteOffset":0,"componentType":5125,"count":3144,"type":"SCALAR"},{"bufferView":9,"byteOffset":0,"componentType":5126,"count":539,"max":[13.819643020629883,1.113800287246704,49.505760192871094],"min":[-12.782146453857422,-1.2274091243743896,0.08580087870359421],"type":"VEC3"},{"bufferView":10,"byteOffset":0,"componentType":5126,"count":539,"type":"VEC3"},{"bufferView":11,"byteOffset":0,"componentType":5126,"count":539,"type":"VEC2"}],"bufferViews":[{"buffer":0,"byteOffset":0,"byteLength":233280,"target":34963},{"buffer":0,"byteOffset":233280,"byteLength":122232,"target":34962},{"buffer":0,"byteOffset":355512,"byteLength":122232,"target":34962},{"buffer":0,"byteOffset":477744,"byteLength":81488,"target":34962},{"buffer":0,"byteOffset":559232,"byteLength":122112,"target":34963},{"buffer":0,"byteOffset":681344,"byteLength":64368,"target":34962},{"buffer":0,"byteOffset":745712,"byteLength":64368,"target":34962},{"buffer":0,"byteOffset":810080,"byteLength":42912,"target":34962},{"buffer":0,"byteOffset":852992,"byteLength":12576,"target":34963},{"buffer":0,"byteOffset":865568,"byteLength":6468,"target":34962},{"buffer":0,"byteOffset":872036,"byteLength":6468,"target":34962},{"buffer":0,"byteOffset":878504,"byteLength":4312,"target":34962}],"scene":0,"scenes":[{"nodes":[0,1,2],"name":"Project Name"}],"extensionsUsed":["KHR_texture_transform"],"buffers":[{"byteLength":882816,"uri":"ProjectName.bin"}]}