{"asset":{"version":"2.0","generator":"VECTARY"},"nodes":[{"translation":[0.0005676975250244141,0.00006043961644172674,-0.0004384498596191406],"scale":[0.001,0.001,0.001],"rotation":[-0.7071067811865475,0,0,0.7071067811865476],"name":"Cream ice cream bar","children":[1,2,3]},{"translation":[-0.5676975250244141,-0.4384498596191406,-0.060439616441726685],"scale":[1,1,1],"rotation":[0,0,0,1],"name":"Frosting","mesh":0},{"translation":[-0.5676975250244141,-0.4384498596191406,-0.060439616441726685],"scale":[1,1,1],"rotation":[0,0,0,1],"name":"Ice cream","mesh":1},{"translation":[-0.5676975250244141,-0.4384498596191406,-0.060439616441726685],"scale":[1,1,1],"rotation":[0,0,0,1],"name":"Stick","mesh":2}],"materials":[{"pbrMetallicRoughness":{"baseColorFactor":[1,1,1,1],"baseColorTexture":{"index":0,"extensions":{"KHR_texture_transform":{"offset":[0,0],"scale":[1,1],"rotation":0}},"texCoord":0},"metallicFactor":0,"roughnessFactor":0.2},"name":"Frosting","emissiveFactor":[0,0,0],"extensions":{},"alphaMode":"OPAQUE","doubleSided":false},{"pbrMetallicRoughness":{"baseColorFactor":[0.744530171266715,0.5542270877660852,0.348864834082879,1],"metallicFactor":0,"roughnessFactor":0.41},"name":"Ice cream","emissiveFactor":[0,0,0],"extensions":{},"alphaMode":"OPAQUE","doubleSided":false},{"pbrMetallicRoughness":{"baseColorFactor":[0.39929329990267437,0.25084023643640047,0.11657577617857154,1],"metallicFactor":0,"roughnessFactor":1},"name":"Stick","emissiveFactor":[0,0,0],"extensions":{},"alphaMode":"OPAQUE","doubleSided":false}],"textures":[{"sampler":0,"source":0}],"images":[{"uri":"BASE2.jpg","mimeType":"image/jpeg"}],"samplers":[{"wrapS":10497,"wrapT":10497}],"meshes":[{"primitives":[{"mode":4,"attributes":{"POSITION":1,"NORMAL":2,"TEXCOORD_0":3},"material":0,"indices":0}]},{"primitives":[{"mode":4,"attributes":{"POSITION":5,"NORMAL":6,"TEXCOORD_0":7},"material":1,"indices":4}]},{"primitives":[{"mode":4,"attributes":{"POSITION":9,"NORMAL":10,"TEXCOORD_0":11},"material":2,"indices":8}]}],"accessors":[{"bufferView":0,"byteOffset":0,"componentType":5125,"count":30720,"type":"SCALAR"},{"bufferView":1,"byteOffset":0,"componentType":5126,"count":5392,"max":[44.43735122680664,22.720783233642578,176.9338836669922],"min":[-43.30195617675781,-21.843883514404297,60.67411422729492],"type":"VEC3"},{"bufferView":2,"byteOffset":0,"componentType":5126,"count":5392,"type":"VEC3"},{"bufferView":3,"byteOffset":0,"componentType":5126,"count":5392,"type":"VEC2"},{"bufferView":4,"byteOffset":0,"componentType":5125,"count":12288,"type":"SCALAR"},{"bufferView":5,"byteOffset":0,"componentType":5126,"count":2177,"max":[39.86909103393555,18.004384994506836,74.90022277832031],"min":[-38.95621109008789,-17.83907699584961,47.09086990356445],"type":"VEC3"},{"bufferView":6,"byteOffset":0,"componentType":5126,"count":2177,"type":"VEC3"},{"bufferView":7,"byteOffset":0,"componentType":5126,"count":2177,"type":"VEC2"},{"bufferView":8,"byteOffset":0,"componentType":5125,"count":3144,"type":"SCALAR"},{"bufferView":9,"byteOffset":0,"componentType":5126,"count":537,"max":[13.768978118896484,1.0908117294311523,49.42695999145508],"min":[-12.835058212280273,-1.2306424379348755,0.060439616441726685],"type":"VEC3"},{"bufferView":10,"byteOffset":0,"componentType":5126,"count":537,"type":"VEC3"},{"bufferView":11,"byteOffset":0,"componentType":5126,"count":537,"type":"VEC2"}],"bufferViews":[{"buffer":0,"byteOffset":0,"byteLength":122880,"target":34963},{"buffer":0,"byteOffset":122880,"byteLength":64704,"target":34962},{"buffer":0,"byteOffset":187584,"byteLength":64704,"target":34962},{"buffer":0,"byteOffset":252288,"byteLength":43136,"target":34962},{"buffer":0,"byteOffset":295424,"byteLength":49152,"target":34963},{"buffer":0,"byteOffset":344576,"byteLength":26124,"target":34962},{"buffer":0,"byteOffset":370700,"byteLength":26124,"target":34962},{"buffer":0,"byteOffset":396824,"byteLength":17416,"target":34962},{"buffer":0,"byteOffset":414240,"byteLength":12576,"target":34963},{"buffer":0,"byteOffset":426816,"byteLength":6444,"target":34962},{"buffer":0,"byteOffset":433260,"byteLength":6444,"target":34962},{"buffer":0,"byteOffset":439704,"byteLength":4296,"target":34962}],"scene":0,"scenes":[{"nodes":[0],"name":"Project Name"}],"extensionsUsed":["KHR_texture_transform"],"buffers":[{"byteLength":444000,"uri":"ProjectName.bin"}]}