{"asset":{"version":"2.0","generator":"VECTARY"},"nodes":[{"translation":[0,0,0],"scale":[0.001,0.001,0.001],"rotation":[-0.7071067811865475,0,0,0.7071067811865476],"name":"Frosting","mesh":0},{"translation":[0,0,0],"scale":[0.001,0.001,0.001],"rotation":[-0.7071067811865475,0,0,0.7071067811865476],"name":"Darker frosting","mesh":1},{"translation":[0,0,0],"scale":[0.001,0.001,0.001],"rotation":[-0.7071067811865475,0,0,0.7071067811865476],"name":"Dark frosting","mesh":2},{"translation":[0,0,0],"scale":[0.001,0.001,0.001],"rotation":[-0.7071067811865475,0,0,0.7071067811865476],"name":"Stick","mesh":3}],"materials":[{"pbrMetallicRoughness":{"baseColorFactor":[1,1,1,1],"baseColorTexture":{"index":0,"extensions":{"KHR_texture_transform":{"offset":[0,0],"scale":[1,1],"rotation":0}},"texCoord":0},"metallicFactor":0,"roughnessFactor":0.32},"name":"Frosting","emissiveFactor":[0,0,0],"extensions":{},"alphaMode":"OPAQUE","doubleSided":false},{"pbrMetallicRoughness":{"baseColorFactor":[1,1,1,1],"baseColorTexture":{"index":1,"extensions":{"KHR_texture_transform":{"offset":[0,0],"scale":[1,1],"rotation":0}},"texCoord":0},"metallicFactor":0,"roughnessFactor":0.31},"name":"Darker frosting","emissiveFactor":[0,0,0],"extensions":{},"alphaMode":"OPAQUE","doubleSided":false},{"pbrMetallicRoughness":{"baseColorFactor":[1,1,1,1],"baseColorTexture":{"index":2,"extensions":{"KHR_texture_transform":{"offset":[0,0],"scale":[1,1],"rotation":0}},"texCoord":0},"metallicFactor":0,"roughnessFactor":0.31},"name":"Dark frosting","emissiveFactor":[0,0,0],"extensions":{},"alphaMode":"OPAQUE","doubleSided":false},{"pbrMetallicRoughness":{"baseColorFactor":[0.39929329990267437,0.25084023643640047,0.11657577617857154,1],"metallicFactor":0,"roughnessFactor":1},"name":"Stick","emissiveFactor":[0,0,0],"extensions":{},"alphaMode":"OPAQUE","doubleSided":false}],"textures":[{"sampler":0,"source":0},{"sampler":0,"source":1},{"sampler":0,"source":2}],"images":[{"uri":"Linear_Gradient_Texture.jpg","mimeType":"image/jpeg"},{"uri":"Linear_Gradient_Texture_1.jpg","mimeType":"image/jpeg"},{"uri":"Linear_Gradient_Texture_2.jpg","mimeType":"image/jpeg"}],"samplers":[{"wrapS":10497,"wrapT":10497}],"meshes":[{"primitives":[{"mode":4,"attributes":{"POSITION":1,"NORMAL":2,"TEXCOORD_0":3},"material":0,"indices":0}]},{"primitives":[{"mode":4,"attributes":{"POSITION":5,"NORMAL":6,"TEXCOORD_0":7},"material":1,"indices":4}]},{"primitives":[{"mode":4,"attributes":{"POSITION":9,"NORMAL":10,"TEXCOORD_0":11},"material":2,"indices":8}]},{"primitives":[{"mode":4,"attributes":{"POSITION":13,"NORMAL":14,"TEXCOORD_0":15},"material":3,"indices":12}]}],"accessors":[{"bufferView":0,"byteOffset":0,"componentType":5125,"count":40704,"type":"SCALAR"},{"bufferView":1,"byteOffset":0,"componentType":5126,"count":7033,"max":[43.15742111206055,25.70066261291504,175.5323028564453],"min":[-44.0357780456543,-24.33638572692871,80.87874603271484],"type":"VEC3"},{"bufferView":2,"byteOffset":0,"componentType":5126,"count":7033,"type":"VEC3"},{"bufferView":3,"byteOffset":0,"componentType":5126,"count":7033,"type":"VEC2"},{"bufferView":4,"byteOffset":0,"componentType":5125,"count":16704,"type":"SCALAR"},{"bufferView":5,"byteOffset":0,"componentType":5126,"count":2973,"max":[37.35883331298828,18.185537338256836,78.84925842285156],"min":[-38.16754913330078,-18.692123413085938,43.27816390991211],"type":"VEC3"},{"bufferView":6,"byteOffset":0,"componentType":5126,"count":2973,"type":"VEC3"},{"bufferView":7,"byteOffset":0,"componentType":5126,"count":2973,"type":"VEC2"},{"bufferView":8,"byteOffset":0,"componentType":5125,"count":23040,"type":"SCALAR"},{"bufferView":9,"byteOffset":0,"componentType":5126,"count":4119,"max":[40.63976287841797,21.741275787353516,100.66209411621094],"min":[-41.96843719482422,-21.17857551574707,57.91791915893555],"type":"VEC3"},{"bufferView":10,"byteOffset":0,"componentType":5126,"count":4119,"type":"VEC3"},{"bufferView":11,"byteOffset":0,"componentType":5126,"count":4119,"type":"VEC2"},{"bufferView":12,"byteOffset":0,"componentType":5125,"count":3144,"type":"SCALAR"},{"bufferView":13,"byteOffset":0,"componentType":5126,"count":583,"max":[13.349723815917969,1.2261308431625366,50.202056884765625],"min":[-13.247518539428711,-1.1530593633651733,0.07288902997970581],"type":"VEC3"},{"bufferView":14,"byteOffset":0,"componentType":5126,"count":583,"type":"VEC3"},{"bufferView":15,"byteOffset":0,"componentType":5126,"count":583,"type":"VEC2"}],"bufferViews":[{"buffer":0,"byteOffset":0,"byteLength":162816,"target":34963},{"buffer":0,"byteOffset":162816,"byteLength":84396,"target":34962},{"buffer":0,"byteOffset":247212,"byteLength":84396,"target":34962},{"buffer":0,"byteOffset":331608,"byteLength":56264,"target":34962},{"buffer":0,"byteOffset":387872,"byteLength":66816,"target":34963},{"buffer":0,"byteOffset":454688,"byteLength":35676,"target":34962},{"buffer":0,"byteOffset":490364,"byteLength":35676,"target":34962},{"buffer":0,"byteOffset":526040,"byteLength":23784,"target":34962},{"buffer":0,"byteOffset":549824,"byteLength":92160,"target":34963},{"buffer":0,"byteOffset":641984,"byteLength":49428,"target":34962},{"buffer":0,"byteOffset":691412,"byteLength":49428,"target":34962},{"buffer":0,"byteOffset":740840,"byteLength":32952,"target":34962},{"buffer":0,"byteOffset":773792,"byteLength":12576,"target":34963},{"buffer":0,"byteOffset":786368,"byteLength":6996,"target":34962},{"buffer":0,"byteOffset":793364,"byteLength":6996,"target":34962},{"buffer":0,"byteOffset":800360,"byteLength":4664,"target":34962}],"scene":0,"scenes":[{"nodes":[0,1,2,3],"name":"Project Name"}],"extensionsUsed":["KHR_texture_transform"],"buffers":[{"byteLength":805024,"uri":"ProjectName.bin"}]}