{"asset":{"version":"2.0","generator":"VECTARY"},"nodes":[{"translation":[0,0,0],"scale":[0.01,0.01,0.01],"rotation":[0,0,0,1],"name":"Frosting","mesh":0},{"translation":[0,0,0],"scale":[0.01,0.01,0.01],"rotation":[0,0,0,1],"name":"Ice cream","mesh":1},{"translation":[0,0,0],"scale":[0.01,0.01,0.01],"rotation":[0,0,0,1],"name":"Stick","mesh":2}],"materials":[{"pbrMetallicRoughness":{"baseColorFactor":[1,1,1,1],"baseColorTexture":{"index":0,"extensions":{"KHR_texture_transform":{"offset":[0,0],"scale":[1,1],"rotation":0}},"texCoord":0},"metallicFactor":0,"roughnessFactor":0.5},"name":"Frosting","emissiveFactor":[0,0,0],"extensions":{},"alphaMode":"OPAQUE","doubleSided":false},{"pbrMetallicRoughness":{"baseColorFactor":[1,1,1,1],"baseColorTexture":{"index":1,"extensions":{"KHR_texture_transform":{"offset":[0,0],"scale":[1,1],"rotation":0}},"texCoord":0},"metallicFactor":0,"roughnessFactor":0.39},"name":"Ice cream","emissiveFactor":[0,0,0],"extensions":{},"alphaMode":"OPAQUE","doubleSided":false},{"pbrMetallicRoughness":{"baseColorFactor":[0.39929329990267437,0.25084023643640047,0.11657577617857154,1],"metallicFactor":0,"roughnessFactor":1},"name":"Stick","emissiveFactor":[0,0,0],"extensions":{},"alphaMode":"OPAQUE","doubleSided":false}],"textures":[{"sampler":0,"source":0},{"sampler":0,"source":1}],"images":[{"uri":"Linear_Gradient_Texture.jpg","mimeType":"image/jpeg"},{"uri":"Linear_Gradient_Texture_1.jpg","mimeType":"image/jpeg"}],"samplers":[{"wrapS":10497,"wrapT":10497}],"meshes":[{"primitives":[{"mode":4,"attributes":{"POSITION":1,"NORMAL":2,"TEXCOORD_0":3},"material":0,"indices":0}]},{"primitives":[{"mode":4,"attributes":{"POSITION":5,"NORMAL":6,"TEXCOORD_0":7},"material":1,"indices":4}]},{"primitives":[{"mode":4,"attributes":{"POSITION":9,"NORMAL":10,"TEXCOORD_0":11},"material":2,"indices":8}]}],"accessors":[{"bufferView":0,"byteOffset":0,"componentType":5125,"count":30720,"type":"SCALAR"},{"bufferView":1,"byteOffset":0,"componentType":5126,"count":5378,"max":[4.4518022537231445,17.781206130981445,2.1956992149353027],"min":[-4.3548736572265625,6.206894874572754,-2.2850582599639893],"type":"VEC3"},{"bufferView":2,"byteOffset":0,"componentType":5126,"count":5378,"type":"VEC3"},{"bufferView":3,"byteOffset":0,"componentType":5126,"count":5378,"type":"VEC2"},{"bufferView":4,"byteOffset":0,"componentType":5125,"count":12288,"type":"SCALAR"},{"bufferView":5,"byteOffset":0,"componentType":5126,"count":2170,"max":[3.9940013885498047,7.556008815765381,1.7843378782272339],"min":[-3.916383743286133,4.696334362030029,-1.8150420188903809],"type":"VEC3"},{"bufferView":6,"byteOffset":0,"componentType":5126,"count":2170,"type":"VEC3"},{"bufferView":7,"byteOffset":0,"componentType":5126,"count":2170,"type":"VEC2"},{"bufferView":8,"byteOffset":0,"componentType":5125,"count":3144,"type":"SCALAR"},{"bufferView":9,"byteOffset":0,"componentType":5126,"count":585,"max":[1.3767281770706177,4.92684268951416,0.12261258065700531],"min":[-1.283942699432373,0.005970895290374756,-0.11530978232622147],"type":"VEC3"},{"bufferView":10,"byteOffset":0,"componentType":5126,"count":585,"type":"VEC3"},{"bufferView":11,"byteOffset":0,"componentType":5126,"count":585,"type":"VEC2"}],"bufferViews":[{"buffer":0,"byteOffset":0,"byteLength":122880,"target":34963},{"buffer":0,"byteOffset":122880,"byteLength":64536,"target":34962},{"buffer":0,"byteOffset":187416,"byteLength":64536,"target":34962},{"buffer":0,"byteOffset":251952,"byteLength":43024,"target":34962},{"buffer":0,"byteOffset":294976,"byteLength":49152,"target":34963},{"buffer":0,"byteOffset":344128,"byteLength":26040,"target":34962},{"buffer":0,"byteOffset":370168,"byteLength":26040,"target":34962},{"buffer":0,"byteOffset":396208,"byteLength":17360,"target":34962},{"buffer":0,"byteOffset":413568,"byteLength":12576,"target":34963},{"buffer":0,"byteOffset":426144,"byteLength":7020,"target":34962},{"buffer":0,"byteOffset":433164,"byteLength":7020,"target":34962},{"buffer":0,"byteOffset":440184,"byteLength":4680,"target":34962}],"scene":0,"scenes":[{"nodes":[0,1,2],"name":"Project Name"}],"extensionsUsed":["KHR_texture_transform"],"buffers":[{"byteLength":444864,"uri":"ProjectName.bin"}]}