{"asset":{"version":"2.0","generator":"VECTARY"},"nodes":[{"translation":[0.000378110408782959,0.000007547438144683949,-0.000641787052154557],"scale":[0.001,0.001,0.001],"rotation":[-0.7071067811865475,0,0,0.7071067811865476],"name":"Cinnamon ice cream bar","children":[1,2,3,4,5,6,7]},{"translation":[-0.378110408782959,-0.641787052154557,-0.007547438144683838],"scale":[1,1,1],"rotation":[0,0,0,1],"name":"Cinnamon frosting","mesh":0},{"translation":[-0.378110408782959,-0.641787052154557,-0.007547438144683838],"scale":[1,1,1],"rotation":[0,0,0,1],"name":"Chocolate ice cream","mesh":1},{"translation":[-0.378110408782959,-0.641787052154557,-0.007547438144683838],"scale":[1,1,1],"rotation":[0,0,0,1],"name":"Stick","mesh":2},{"translation":[-0.378110408782959,-0.641787052154557,-0.007547438144683838],"scale":[10,10,10],"rotation":[0.7071067811865475,0,0,0.7071067811865476],"name":"Dark chocolate chips","mesh":3},{"translation":[-0.378110408782959,-0.641787052154557,-0.007547438144683838],"scale":[10,10,10],"rotation":[0.7071067811865475,0,0,0.7071067811865476],"name":"White chocolate chips","mesh":4},{"translation":[-0.378110408782959,-0.641787052154557,-0.007547438144683838],"scale":[10,10,10],"rotation":[0.7071067811865475,0,0,0.7071067811865476],"name":"Milk chocolate chips","mesh":5},{"translation":[-0.378110408782959,-0.641787052154557,-0.007547438144683838],"scale":[10,10,10],"rotation":[0.7071067811865475,0,0,0.7071067811865476],"name":"Cinnamon chips","mesh":6}],"materials":[{"pbrMetallicRoughness":{"baseColorFactor":[1,1,1,1],"baseColorTexture":{"index":0,"extensions":{"KHR_texture_transform":{"offset":[0,0],"scale":[1,1],"rotation":0}},"texCoord":0},"metallicFactor":0,"roughnessFactor":0.55},"name":"Cinnamon frosting","emissiveFactor":[0,0,0],"extensions":{},"alphaMode":"OPAQUE","doubleSided":false},{"pbrMetallicRoughness":{"baseColorFactor":[1,1,1,1],"baseColorTexture":{"index":1,"extensions":{"KHR_texture_transform":{"offset":[0,0],"scale":[1,1],"rotation":0}},"texCoord":0},"metallicFactor":0,"roughnessFactor":0.51},"name":"Chocolate ice cream","emissiveFactor":[0,0,0],"extensions":{},"alphaMode":"OPAQUE","doubleSided":false},{"pbrMetallicRoughness":{"baseColorFactor":[0.39929329990267437,0.25084023643640047,0.11657577617857154,1],"metallicFactor":0,"roughnessFactor":1},"name":"Stick","emissiveFactor":[0,0,0],"extensions":{},"alphaMode":"OPAQUE","doubleSided":false},{"pbrMetallicRoughness":{"baseColorFactor":[0.28445206156002445,0.07805658995810189,0.000005077051900661759,1],"metallicFactor":0,"roughnessFactor":0.33},"name":"Dark chocolate chips","emissiveFactor":[0,0,0],"extensions":{},"alphaMode":"OPAQUE","doubleSided":false},{"pbrMetallicRoughness":{"baseColorFactor":[1,0.7592995506950911,0.3297290329675149,1],"metallicFactor":0,"roughnessFactor":0.31},"name":"White chocolate chips","emissiveFactor":[0,0,0],"extensions":{},"alphaMode":"OPAQUE","doubleSided":false},{"pbrMetallicRoughness":{"baseColorFactor":[0.6730490732809419,0.3837746464879752,0.04455262731642138,1],"metallicFactor":0,"roughnessFactor":0.34},"name":"Milk chocolate chips","emissiveFactor":[0,0,0],"extensions":{},"alphaMode":"OPAQUE","doubleSided":false},{"pbrMetallicRoughness":{"baseColorFactor":[0.5174013674966733,0.1390224537347025,0,1],"metallicFactor":0,"roughnessFactor":0.31},"name":"Cinnamon chips","emissiveFactor":[0,0,0],"extensions":{},"alphaMode":"OPAQUE","doubleSided":false}],"textures":[{"sampler":0,"source":0},{"sampler":0,"source":1}],"images":[{"uri":"Linear_Gradient_Texture.jpg","mimeType":"image/jpeg"},{"uri":"Linear_Gradient_Texture_1.jpg","mimeType":"image/jpeg"}],"samplers":[{"wrapS":10497,"wrapT":10497}],"meshes":[{"primitives":[{"mode":4,"attributes":{"POSITION":1,"NORMAL":2,"TEXCOORD_0":3},"material":0,"indices":0}]},{"primitives":[{"mode":4,"attributes":{"POSITION":5,"NORMAL":6,"TEXCOORD_0":7},"material":1,"indices":4}]},{"primitives":[{"mode":4,"attributes":{"POSITION":9,"NORMAL":10,"TEXCOORD_0":11},"material":2,"indices":8}]},{"primitives":[{"mode":4,"attributes":{"POSITION":13,"NORMAL":14,"TEXCOORD_0":15},"material":3,"indices":12}]},{"primitives":[{"mode":4,"attributes":{"POSITION":17,"NORMAL":18,"TEXCOORD_0":19},"material":4,"indices":16}]},{"primitives":[{"mode":4,"attributes":{"POSITION":21,"NORMAL":22,"TEXCOORD_0":23},"material":5,"indices":20}]},{"primitives":[{"mode":4,"attributes":{"POSITION":25,"NORMAL":26,"TEXCOORD_0":27},"material":6,"indices":24}]}],"accessors":[{"bufferView":0,"byteOffset":0,"componentType":5125,"count":30720,"type":"SCALAR"},{"bufferView":1,"byteOffset":0,"componentType":5126,"count":5315,"max":[45.284767150878906,22.779277801513672,177.7899932861328],"min":[-44.685264587402344,-22.657224655151367,59.071311950683594],"type":"VEC3"},{"bufferView":2,"byteOffset":0,"componentType":5126,"count":5315,"type":"VEC3"},{"bufferView":3,"byteOffset":0,"componentType":5126,"count":5315,"type":"VEC2"},{"bufferView":4,"byteOffset":0,"componentType":5125,"count":12288,"type":"SCALAR"},{"bufferView":5,"byteOffset":0,"componentType":5126,"count":2116,"max":[40.3936767578125,18.079055786132812,69.98066711425781],"min":[-40.40110778808594,-18.630422592163086,46.58735656738281],"type":"VEC3"},{"bufferView":6,"byteOffset":0,"componentType":5126,"count":2116,"type":"VEC3"},{"bufferView":7,"byteOffset":0,"componentType":5126,"count":2116,"type":"VEC2"},{"bufferView":8,"byteOffset":0,"componentType":5125,"count":3144,"type":"SCALAR"},{"bufferView":9,"byteOffset":0,"componentType":5126,"count":853,"max":[13.751483917236328,1.141860008239746,48.598045349121094],"min":[-12.863329887390137,-1.141860008239746,0.007547438144683838],"type":"VEC3"},{"bufferView":10,"byteOffset":0,"componentType":5126,"count":853,"type":"VEC3"},{"bufferView":11,"byteOffset":0,"componentType":5126,"count":853,"type":"VEC2"},{"bufferView":12,"byteOffset":0,"componentType":5125,"count":15120,"type":"SCALAR"},{"bufferView":13,"byteOffset":0,"componentType":5126,"count":4788,"max":[4.583127021789551,17.840946197509766,2.2810561656951904],"min":[-4.507504940032959,6.587082862854004,-2.1903622150421143],"type":"VEC3"},{"bufferView":14,"byteOffset":0,"componentType":5126,"count":4788,"type":"VEC3"},{"bufferView":15,"byteOffset":0,"componentType":5126,"count":4788,"type":"VEC2"},{"bufferView":16,"byteOffset":0,"componentType":5125,"count":11520,"type":"SCALAR"},{"bufferView":17,"byteOffset":0,"componentType":5126,"count":3584,"max":[4.450274467468262,18.050256729125977,2.4024596214294434],"min":[-3.161648988723755,6.857947826385498,-2.5639309883117676],"type":"VEC3"},{"bufferView":18,"byteOffset":0,"componentType":5126,"count":3584,"type":"VEC3"},{"bufferView":19,"byteOffset":0,"componentType":5126,"count":3584,"type":"VEC2"},{"bufferView":20,"byteOffset":0,"componentType":5125,"count":17640,"type":"SCALAR"},{"bufferView":21,"byteOffset":0,"componentType":5126,"count":5481,"max":[4.178623676300049,17.837160110473633,2.36759614944458],"min":[-4.475576400756836,7.47209358215332,-2.0391600131988525],"type":"VEC3"},{"bufferView":22,"byteOffset":0,"componentType":5126,"count":5481,"type":"VEC3"},{"bufferView":23,"byteOffset":0,"componentType":5126,"count":5481,"type":"VEC2"},{"bufferView":24,"byteOffset":0,"componentType":5125,"count":11520,"type":"SCALAR"},{"bufferView":25,"byteOffset":0,"componentType":5126,"count":3584,"max":[4.573551654815674,17.2297306060791,2.4355735778808594],"min":[-4.457660675048828,6.981237888336182,-2.1130549907684326],"type":"VEC3"},{"bufferView":26,"byteOffset":0,"componentType":5126,"count":3584,"type":"VEC3"},{"bufferView":27,"byteOffset":0,"componentType":5126,"count":3584,"type":"VEC2"}],"bufferViews":[{"buffer":0,"byteOffset":0,"byteLength":122880,"target":34963},{"buffer":0,"byteOffset":122880,"byteLength":63780,"target":34962},{"buffer":0,"byteOffset":186660,"byteLength":63780,"target":34962},{"buffer":0,"byteOffset":250440,"byteLength":42520,"target":34962},{"buffer":0,"byteOffset":292960,"byteLength":49152,"target":34963},{"buffer":0,"byteOffset":342112,"byteLength":25392,"target":34962},{"buffer":0,"byteOffset":367504,"byteLength":25392,"target":34962},{"buffer":0,"byteOffset":392896,"byteLength":16928,"target":34962},{"buffer":0,"byteOffset":409824,"byteLength":12576,"target":34963},{"buffer":0,"byteOffset":422400,"byteLength":10236,"target":34962},{"buffer":0,"byteOffset":432636,"byteLength":10236,"target":34962},{"buffer":0,"byteOffset":442872,"byteLength":6824,"target":34962},{"buffer":0,"byteOffset":449696,"byteLength":60480,"target":34963},{"buffer":0,"byteOffset":510176,"byteLength":57456,"target":34962},{"buffer":0,"byteOffset":567632,"byteLength":57456,"target":34962},{"buffer":0,"byteOffset":625088,"byteLength":38304,"target":34962},{"buffer":0,"byteOffset":663392,"byteLength":46080,"target":34963},{"buffer":0,"byteOffset":709472,"byteLength":43008,"target":34962},{"buffer":0,"byteOffset":752480,"byteLength":43008,"target":34962},{"buffer":0,"byteOffset":795488,"byteLength":28672,"target":34962},{"buffer":0,"byteOffset":824160,"byteLength":70560,"target":34963},{"buffer":0,"byteOffset":894720,"byteLength":65772,"target":34962},{"buffer":0,"byteOffset":960492,"byteLength":65772,"target":34962},{"buffer":0,"byteOffset":1026264,"byteLength":43848,"target":34962},{"buffer":0,"byteOffset":1070112,"byteLength":46080,"target":34963},{"buffer":0,"byteOffset":1116192,"byteLength":43008,"target":34962},{"buffer":0,"byteOffset":1159200,"byteLength":43008,"target":34962},{"buffer":0,"byteOffset":1202208,"byteLength":28672,"target":34962}],"scene":0,"scenes":[{"nodes":[0],"name":"Project Name"}],"extensionsUsed":["KHR_texture_transform"],"buffers":[{"byteLength":1230880,"uri":"ProjectName.bin"}]}