{"asset":{"version":"2.0","generator":"VECTARY"},"nodes":[{"translation":[0,0,0],"scale":[1,0.9999999999999999,0.9999999999999999],"rotation":[-0.7071067811865475,0,0,0.7071067811865476],"name":"Cherry ice cream cornet","mesh":0}],"materials":[{"pbrMetallicRoughness":{"baseColorFactor":[1,1,1,1],"baseColorTexture":{"index":0,"extensions":{"KHR_texture_transform":{"offset":[0,0],"scale":[1,1],"rotation":0}},"texCoord":0},"metallicRoughnessTexture":{"index":2,"extensions":{"KHR_texture_transform":{"offset":[0,0],"scale":[1,1],"rotation":0}},"texCoord":0},"metallicFactor":0,"roughnessFactor":1},"name":"Ice cream","normalTexture":{"index":1,"scale":1,"extensions":{"KHR_texture_transform":{"offset":[0,0],"scale":[1,1],"rotation":0}},"texCoord":0},"emissiveFactor":[0,0,0],"extensions":{},"alphaMode":"OPAQUE","doubleSided":false}],"textures":[{"sampler":0,"source":0},{"sampler":0,"source":1},{"sampler":0,"source":2}],"images":[{"uri":"base_color_texture.jpg","mimeType":"image/jpeg"},{"uri":"normalmap_texture.jpg","mimeType":"image/jpeg"},{"uri":"metallicTexture&pet_ICE-cream_cornet_Cherry_01_UV_Material.jpg","mimeType":"image/jpeg"}],"samplers":[{"wrapS":10497,"wrapT":10497}],"meshes":[{"primitives":[{"mode":4,"attributes":{"POSITION":1,"NORMAL":2,"TEXCOORD_0":3},"material":0,"indices":0}]}],"accessors":[{"bufferView":0,"byteOffset":0,"componentType":5125,"count":81774,"type":"SCALAR"},{"bufferView":1,"byteOffset":0,"componentType":5126,"count":14688,"max":[0.060511160641908646,0.03611781820654869,0.14316901564598083],"min":[-0.03280198201537132,-0.0318693183362484,-7.450580596923828e-9],"type":"VEC3"},{"bufferView":2,"byteOffset":0,"componentType":5126,"count":14688,"type":"VEC3"},{"bufferView":3,"byteOffset":0,"componentType":5126,"count":14688,"type":"VEC2"}],"bufferViews":[{"buffer":0,"byteOffset":0,"byteLength":327096,"target":34963},{"buffer":0,"byteOffset":327096,"byteLength":176256,"target":34962},{"buffer":0,"byteOffset":503352,"byteLength":176256,"target":34962},{"buffer":0,"byteOffset":679608,"byteLength":117504,"target":34962}],"scene":0,"scenes":[{"nodes":[0],"name":"Project Name"}],"extensionsUsed":["KHR_texture_transform"],"buffers":[{"byteLength":797112,"uri":"ProjectName.bin"}]}