{"asset":{"version":"2.0","generator":"VECTARY"},"nodes":[{"translation":[0.01645232320986105,0.000036577255072594007,0.000028857174968006665],"scale":[0.001,0.001,0.001],"rotation":[-0.7071067811865475,0,0,0.7071067811865476],"name":"Caramel ice cream cornet","children":[1,2,3,4,5,6]},{"translation":[-18.728190672019252,0.6325807009689832,2.5820216829156872],"scale":[1.9589299999999998,1.9589299999999998,1.9589299999999998],"rotation":[0,0,0,0.9999999999999998],"name":"Cornet","mesh":0},{"translation":[-19.667807829001674,2.41644281492162,125.52245709246158],"scale":[2.71426,2.71426,2.71426],"rotation":[0,0,0,1],"name":"Dark caramel ice cream","mesh":1},{"translation":[-19.416409742453823,4.552630368327382,122.8082713777399],"scale":[2.79239,2.79239,2.79239],"rotation":[0,0,0,1],"name":"Caramel ice cream","mesh":2},{"translation":[4.340094316384068,-36.37861352815699,104.02103039568424],"scale":[10.740000000000002,10.740000000000007,10.740000000000006],"rotation":[0.6817618310105088,0.34884743816367836,-0.022682246226129354,0.6426443700601245],"name":"White chocolate heart","mesh":3},{"translation":[-11.051615488150844,-15.871735628987071,74.88130661791324],"scale":[5.81893,5.81893,5.81893],"rotation":[0.1613524109851374,-0.20412370352296794,0.8312918148347758,-0.4911749502143363],"name":"Cinnamon stick","mesh":4},{"translation":[-29.849196683982143,-22.39029031648707,73.9376077348566],"scale":[5.81893,5.818930000000001,5.81893],"rotation":[-0.012542659334297417,0.4499764728612599,0.13498207512002322,0.8826911662435825],"name":"Cinnamon stick 2","mesh":5}],"materials":[{"pbrMetallicRoughness":{"baseColorFactor":[1,1,1,1],"baseColorTexture":{"index":0,"extensions":{"KHR_texture_transform":{"offset":[0,0],"scale":[1,1],"rotation":0}},"texCoord":0},"metallicFactor":0,"roughnessFactor":0.55},"name":"Cornet","normalTexture":{"index":1,"scale":1,"extensions":{"KHR_texture_transform":{"offset":[0,0],"scale":[1,1],"rotation":0}},"texCoord":0},"emissiveFactor":[0,0,0],"extensions":{},"alphaMode":"OPAQUE","doubleSided":false},{"pbrMetallicRoughness":{"baseColorFactor":[1,1,1,1],"metallicRoughnessTexture":{"index":3,"extensions":{"KHR_texture_transform":{"offset":[0,0],"scale":[5,5],"rotation":0}},"texCoord":0},"metallicFactor":0,"roughnessFactor":0.11},"name":"Dark caramel ice cream","normalTexture":{"index":2,"scale":1,"extensions":{"KHR_texture_transform":{"offset":[0,0],"scale":[5,5],"rotation":0}},"texCoord":0},"emissiveFactor":[0,0,0],"extensions":{},"alphaMode":"OPAQUE","doubleSided":false},{"pbrMetallicRoughness":{"baseColorFactor":[1,1,1,1],"metallicRoughnessTexture":{"index":3,"extensions":{"KHR_texture_transform":{"offset":[0,0],"scale":[5,5],"rotation":0}},"texCoord":0},"metallicFactor":0,"roughnessFactor":0.11},"name":"Caramel ice cream","normalTexture":{"index":2,"scale":1,"extensions":{"KHR_texture_transform":{"offset":[0,0],"scale":[5,5],"rotation":0}},"texCoord":0},"emissiveFactor":[0,0,0],"extensions":{},"alphaMode":"OPAQUE","doubleSided":false},{"pbrMetallicRoughness":{"baseColorFactor":[1,1,1,1],"metallicRoughnessTexture":{"index":3,"extensions":{"KHR_texture_transform":{"offset":[0,0],"scale":[5,5],"rotation":0}},"texCoord":0},"metallicFactor":0,"roughnessFactor":0.11},"name":"White chocolate heart","normalTexture":{"index":2,"scale":1,"extensions":{"KHR_texture_transform":{"offset":[0,0],"scale":[5,5],"rotation":0}},"texCoord":0},"emissiveFactor":[0,0,0],"extensions":{},"alphaMode":"OPAQUE","doubleSided":false},{"pbrMetallicRoughness":{"baseColorFactor":[1,1,1,1],"metallicRoughnessTexture":{"index":3,"extensions":{"KHR_texture_transform":{"offset":[0,0],"scale":[5,5],"rotation":0}},"texCoord":0},"metallicFactor":0,"roughnessFactor":1},"name":"Cinnamon sticks","normalTexture":{"index":2,"scale":1,"extensions":{"KHR_texture_transform":{"offset":[0,0],"scale":[5,5],"rotation":0}},"texCoord":0},"emissiveFactor":[0,0,0],"extensions":{},"alphaMode":"OPAQUE","doubleSided":false}],"textures":[{"sampler":0,"source":0},{"sampler":0,"source":1},{"sampler":0,"source":2},{"sampler":0,"source":3}],"images":[{"uri":"ice_cream_Material__26_BaseColor.jpg","mimeType":"image/jpeg"},{"uri":"New_Graph_normal.jpg","mimeType":"image/jpeg"},{"uri":"Plastic_003_NormalMap.jpg","mimeType":"image/jpeg"},{"uri":"metallicTexture&Plastic_003_Roughness.jpg","mimeType":"image/jpeg"}],"samplers":[{"wrapS":10497,"wrapT":10497}],"meshes":[{"primitives":[{"mode":4,"attributes":{"POSITION":1,"NORMAL":2,"TEXCOORD_0":3},"material":0,"indices":0}]},{"primitives":[{"mode":4,"attributes":{"POSITION":5,"NORMAL":6,"TEXCOORD_0":7},"material":1,"indices":4}]},{"primitives":[{"mode":4,"attributes":{"POSITION":9,"NORMAL":10,"TEXCOORD_0":11},"material":2,"indices":8}]},{"primitives":[{"mode":4,"attributes":{"POSITION":13,"NORMAL":14,"TEXCOORD_0":15},"material":3,"indices":12}]},{"primitives":[{"mode":4,"attributes":{"POSITION":17,"NORMAL":18,"TEXCOORD_0":19},"material":4,"indices":16}]},{"primitives":[{"mode":4,"attributes":{"POSITION":21,"NORMAL":22,"TEXCOORD_0":23},"material":4,"indices":20}]}],"accessors":[{"bufferView":0,"byteOffset":0,"componentType":5125,"count":5859,"type":"SCALAR"},{"bufferView":1,"byteOffset":0,"componentType":5126,"count":1046,"max":[18.5853328704834,18.529008865356445,41.4790153503418],"min":[-18.52468490600586,-18.59720230102539,-1.318077564239502],"type":"VEC3"},{"bufferView":2,"byteOffset":0,"componentType":5126,"count":1046,"type":"VEC3"},{"bufferView":3,"byteOffset":0,"componentType":5126,"count":1046,"type":"VEC2"},{"bufferView":4,"byteOffset":0,"componentType":5125,"count":5970,"type":"SCALAR"},{"bufferView":5,"byteOffset":0,"componentType":5126,"count":1328,"max":[14.761711120605469,16.21162223815918,-8.515413284301758],"min":[-15.550285339355469,-15.815032005310059,-20.31346893310547],"type":"VEC3"},{"bufferView":6,"byteOffset":0,"componentType":5126,"count":1328,"type":"VEC3"},{"bufferView":7,"byteOffset":0,"componentType":5126,"count":1328,"type":"VEC2"},{"bufferView":8,"byteOffset":0,"componentType":5125,"count":9930,"type":"SCALAR"},{"bufferView":9,"byteOffset":0,"componentType":5126,"count":1929,"max":[15.692763328552246,15.944429397583008,12.393829345703125],"min":[-16.03127098083496,-16.23834991455078,-12.690206527709961],"type":"VEC3"},{"bufferView":10,"byteOffset":0,"componentType":5126,"count":1929,"type":"VEC3"},{"bufferView":11,"byteOffset":0,"componentType":5126,"count":1929,"type":"VEC2"},{"bufferView":12,"byteOffset":0,"componentType":5125,"count":4884,"type":"SCALAR"},{"bufferView":13,"byteOffset":0,"componentType":5126,"count":938,"max":[2.2044620513916016,1.7099838256835938,0.8080542087554932],"min":[-2.1814794540405273,-1.6319881677627563,-0.8080511093139648],"type":"VEC3"},{"bufferView":14,"byteOffset":0,"componentType":5126,"count":938,"type":"VEC3"},{"bufferView":15,"byteOffset":0,"componentType":5126,"count":938,"type":"VEC2"},{"bufferView":16,"byteOffset":0,"componentType":5125,"count":1884,"type":"SCALAR"},{"bufferView":17,"byteOffset":0,"componentType":5126,"count":672,"max":[2.5581438541412354,1.8152110576629639,18.5],"min":[-2.0617034435272217,-2.307001829147339,-3.8813375256852023e-13],"type":"VEC3"},{"bufferView":18,"byteOffset":0,"componentType":5126,"count":672,"type":"VEC3"},{"bufferView":19,"byteOffset":0,"componentType":5126,"count":672,"type":"VEC2"},{"bufferView":20,"byteOffset":0,"componentType":5125,"count":1884,"type":"SCALAR"},{"bufferView":21,"byteOffset":0,"componentType":5126,"count":672,"max":[2.5581438541412354,1.8152110576629639,18.5],"min":[-2.0617034435272217,-2.307001829147339,-3.8813375256852023e-13],"type":"VEC3"},{"bufferView":22,"byteOffset":0,"componentType":5126,"count":672,"type":"VEC3"},{"bufferView":23,"byteOffset":0,"componentType":5126,"count":672,"type":"VEC2"}],"bufferViews":[{"buffer":0,"byteOffset":0,"byteLength":23436,"target":34963},{"buffer":0,"byteOffset":23436,"byteLength":12552,"target":34962},{"buffer":0,"byteOffset":35988,"byteLength":12552,"target":34962},{"buffer":0,"byteOffset":48540,"byteLength":8368,"target":34962},{"buffer":0,"byteOffset":56908,"byteLength":23880,"target":34963},{"buffer":0,"byteOffset":80788,"byteLength":15936,"target":34962},{"buffer":0,"byteOffset":96724,"byteLength":15936,"target":34962},{"buffer":0,"byteOffset":112660,"byteLength":10624,"target":34962},{"buffer":0,"byteOffset":123284,"byteLength":39720,"target":34963},{"buffer":0,"byteOffset":163004,"byteLength":23148,"target":34962},{"buffer":0,"byteOffset":186152,"byteLength":23148,"target":34962},{"buffer":0,"byteOffset":209300,"byteLength":15432,"target":34962},{"buffer":0,"byteOffset":224732,"byteLength":19536,"target":34963},{"buffer":0,"byteOffset":244268,"byteLength":11256,"target":34962},{"buffer":0,"byteOffset":255524,"byteLength":11256,"target":34962},{"buffer":0,"byteOffset":266780,"byteLength":7504,"target":34962},{"buffer":0,"byteOffset":274284,"byteLength":7536,"target":34963},{"buffer":0,"byteOffset":281820,"byteLength":8064,"target":34962},{"buffer":0,"byteOffset":289884,"byteLength":8064,"target":34962},{"buffer":0,"byteOffset":297948,"byteLength":5376,"target":34962},{"buffer":0,"byteOffset":303324,"byteLength":7536,"target":34963},{"buffer":0,"byteOffset":310860,"byteLength":8064,"target":34962},{"buffer":0,"byteOffset":318924,"byteLength":8064,"target":34962},{"buffer":0,"byteOffset":326988,"byteLength":5376,"target":34962}],"scene":0,"scenes":[{"nodes":[0],"name":"Project Name"}],"extensionsUsed":["KHR_texture_transform"],"buffers":[{"byteLength":332364,"uri":"ProjectName.bin"}]}